<svg xmlns="http://www.w3.org/2000/svg" width="225.289" height="235.736" viewBox="0 0 225.289 235.736">
  <g id="Group_1" data-name="Group 1" transform="translate(187.216 -279.535) rotate(49)">
    <path id="Union_2" data-name="Union 2" d="M36.229,127.942a58.587,58.587,0,0,1-25.738-21.014A57.8,57.8,0,0,1,5.1,97.076,57.215,57.215,0,0,1,.5,74.5V.5h66v74h51a57.209,57.209,0,0,1-4.6,22.576,57.8,57.8,0,0,1-5.394,9.852,58.9,58.9,0,0,1-71.28,21.014Z" transform="translate(153 249)" fill="#ff6700"/>
    <path id="Union_3" data-name="Union 3" d="M36.229,127.942a58.587,58.587,0,0,1-25.738-21.014A57.8,57.8,0,0,1,5.1,97.076,57.215,57.215,0,0,1,.5,74.5V.5h66v74h51a57.209,57.209,0,0,1-4.6,22.576,57.8,57.8,0,0,1-5.394,9.852,58.9,58.9,0,0,1-71.28,21.014Z" transform="translate(349.001 385) rotate(180)" fill="#11b0eb"/>
  </g>
</svg>
